<svg width="14" height="14" viewBox="0 0 14 14" fill="none" xmlns="http://www.w3.org/2000/svg">
<path fill-rule="evenodd" clip-rule="evenodd" d="M1.66683 6.33325C1.66683 3.75592 3.75617 1.66659 6.3335 1.66659C8.91083 1.66659 11.0002 3.75592 11.0002 6.33325C11.0002 7.59052 10.503 8.73167 9.69447 9.57079C9.67163 9.58835 9.64966 9.6076 9.62873 9.62852C9.60781 9.64944 9.58857 9.67141 9.57101 9.69425C8.73189 10.5027 7.59075 10.9999 6.3335 10.9999C3.75617 10.9999 1.66683 8.91058 1.66683 6.33325ZM10.0786 11.0212C9.05216 11.8423 7.75016 12.3333 6.3335 12.3333C3.01979 12.3333 0.333496 9.64696 0.333496 6.33325C0.333496 3.01954 3.01979 0.333252 6.3335 0.333252C9.64721 0.333252 12.3335 3.01954 12.3335 6.33325C12.3335 7.74994 11.8425 9.05194 11.0214 10.0784L13.4715 12.5285C13.7319 12.7889 13.7319 13.211 13.4715 13.4713C13.2112 13.7317 12.7891 13.7317 12.5287 13.4713L10.0786 11.0212Z" fill="#FAFBFC"/>
</svg>
