<svg width="32" height="32" viewBox="0 0 32 32" fill="none" xmlns="http://www.w3.org/2000/svg">
<path fill-rule="evenodd" clip-rule="evenodd" d="M24.9432 8.94287C25.4638 8.42217 25.4638 7.57795 24.9432 7.05727C24.4224 6.53657 23.5782 6.53657 23.0576 7.05727L16.0003 14.1145L8.94314 7.05727C8.42244 6.53657 7.57822 6.53657 7.05752 7.05727C6.53682 7.57795 6.53682 8.42217 7.05752 8.94287L14.1147 16.0001L7.05752 23.0573C6.53682 23.5779 6.53682 24.4221 7.05752 24.9429C7.57822 25.4635 8.42244 25.4635 8.94314 24.9429L16.0003 17.8857L23.0576 24.9429C23.5782 25.4635 24.4224 25.4635 24.9432 24.9429C25.4638 24.4221 25.4638 23.5779 24.9432 23.0573L17.8859 16.0001L24.9432 8.94287Z" fill="white"/>
</svg>
