<svg width="14" height="14" viewBox="0 0 14 14" fill="none" xmlns="http://www.w3.org/2000/svg">
<path d="M13.39 8.1118C13.3219 8.04352 13.2364 7.99508 13.1428 7.97168C13.0492 7.94828 12.951 7.95081 12.8588 7.97899C11.8458 8.28523 10.7687 8.31091 9.74228 8.05329C8.71585 7.79567 7.77855 7.2644 7.03025 6.5161C6.28195 5.7678 5.75068 4.8305 5.49306 3.80407C5.23544 2.77765 5.26112 1.70057 5.56736 0.687587C5.59578 0.595283 5.5985 0.496978 5.57523 0.403244C5.55196 0.309509 5.50357 0.223892 5.43528 0.1556C5.36699 0.0873071 5.28137 0.0389236 5.18764 0.0156523C5.0939 -0.00761892 4.9956 -0.00489733 4.9033 0.0235244C3.50281 0.452539 2.2733 1.31233 1.38974 2.48056C0.617046 3.50644 0.145722 4.72746 0.0287207 6.00644C-0.0882802 7.28543 0.153677 8.5717 0.72741 9.72075C1.30114 10.8698 2.18392 11.8361 3.27656 12.5111C4.36921 13.1861 5.62842 13.5431 6.91275 13.5418C8.4111 13.5465 9.86959 13.0594 11.0645 12.1553C12.2327 11.2717 13.0925 10.0422 13.5215 8.64173C13.5496 8.54977 13.5522 8.45191 13.529 8.35858C13.5059 8.26526 13.4578 8.17997 13.39 8.1118ZM10.4256 11.3066C9.30041 12.1541 7.90691 12.5667 6.50166 12.4683C5.09641 12.3699 3.77399 11.7672 2.77786 10.7711C1.78172 9.77505 1.17891 8.45269 1.0804 7.04744C0.98189 5.6422 1.39431 4.24866 2.24173 3.12337C2.79384 2.39427 3.50761 1.80324 4.32689 1.39681C4.28022 1.72434 4.2567 2.05475 4.2565 2.38559C4.25843 4.21665 4.98667 5.97216 6.28143 7.26691C7.57618 8.56167 9.33169 9.28991 11.1627 9.29185C11.4943 9.29174 11.8253 9.26822 12.1535 9.22145C11.7467 10.0409 11.1552 10.7547 10.4256 11.3066Z" fill="#FAFBFC"/>
</svg>
