<svg width="16" height="16" viewBox="0 0 16 16" fill="none" xmlns="http://www.w3.org/2000/svg">
<path fill-rule="evenodd" clip-rule="evenodd" d="M3.46671 0.933415C3.59261 0.765544 3.7902 0.666748 4.00004 0.666748H12C12.2099 0.666748 12.4075 0.765544 12.5334 0.933415L14.5334 3.60008C14.6199 3.71548 14.6667 3.85583 14.6667 4.00008V13.3334C14.6667 13.8638 14.456 14.3726 14.0809 14.7476C13.7058 15.1227 13.1971 15.3334 12.6667 15.3334H3.33337C2.80294 15.3334 2.29423 15.1227 1.91916 14.7476C1.54409 14.3726 1.33337 13.8638 1.33337 13.3334V4.00008C1.33337 3.85583 1.38016 3.71548 1.46671 3.60008L3.46671 0.933415ZM4.33337 2.00008L2.66671 4.2223V13.3334C2.66671 13.5102 2.73695 13.6798 2.86197 13.8048C2.98699 13.9298 3.15656 14.0001 3.33337 14.0001H12.6667C12.8435 14.0001 13.0131 13.9298 13.1381 13.8048C13.2631 13.6798 13.3334 13.5102 13.3334 13.3334V4.2223L11.6667 2.00008H4.33337Z" fill="#FAFBFC"/>
<path fill-rule="evenodd" clip-rule="evenodd" d="M1.33337 4.00016C1.33337 3.63197 1.63185 3.3335 2.00004 3.3335H14C14.3682 3.3335 14.6667 3.63197 14.6667 4.00016C14.6667 4.36835 14.3682 4.66683 14 4.66683H2.00004C1.63185 4.66683 1.33337 4.36835 1.33337 4.00016Z" fill="#FAFBFC"/>
<path fill-rule="evenodd" clip-rule="evenodd" d="M5.33329 6C5.70148 6 5.99996 6.29848 5.99996 6.66667C5.99996 7.1971 6.21067 7.70581 6.58575 8.08088C6.96082 8.45595 7.46953 8.66667 7.99996 8.66667C8.53039 8.66667 9.0391 8.45595 9.41417 8.08088C9.78925 7.70581 9.99996 7.1971 9.99996 6.66667C9.99996 6.29848 10.2984 6 10.6666 6C11.0348 6 11.3333 6.29848 11.3333 6.66667C11.3333 7.55072 10.9821 8.39857 10.357 9.02369C9.73186 9.64881 8.88401 10 7.99996 10C7.1159 10 6.26806 9.64881 5.64294 9.02369C5.01782 8.39857 4.66663 7.55072 4.66663 6.66667C4.66663 6.29848 4.9651 6 5.33329 6Z" fill="#FAFBFC"/>
</svg>
