<svg width="16" height="16" viewBox="0 0 16 16" fill="none" xmlns="http://www.w3.org/2000/svg">
<path fill-rule="evenodd" clip-rule="evenodd" d="M8.6665 3.33341C8.6665 2.96522 8.36803 2.66675 7.99984 2.66675C7.63165 2.66675 7.33317 2.96522 7.33317 3.33341V7.33342H3.33317C2.96498 7.33342 2.6665 7.63189 2.6665 8.00008C2.6665 8.36827 2.96498 8.66675 3.33317 8.66675H7.33317V12.6667C7.33317 13.0349 7.63165 13.3334 7.99984 13.3334C8.36803 13.3334 8.6665 13.0349 8.6665 12.6667V8.66675H12.6665C13.0347 8.66675 13.3332 8.36827 13.3332 8.00008C13.3332 7.63189 13.0347 7.33342 12.6665 7.33342H8.6665V3.33341Z" fill="white"/>
</svg>
