<svg width="17" height="16" viewBox="0 0 17 16" fill="none" xmlns="http://www.w3.org/2000/svg">
<path fill-rule="evenodd" clip-rule="evenodd" d="M9.88912 1.63142C10.4232 1.41184 10.9955 1.29883 11.5736 1.29883C12.1517 1.29883 12.7241 1.41184 13.2581 1.63142C13.7921 1.85099 14.2773 2.17282 14.686 2.57852C15.0947 2.98398 15.4189 3.46537 15.6402 3.99519C15.8615 4.52511 15.9753 5.0931 15.9753 5.66671C15.9753 6.24032 15.8615 6.80831 15.6402 7.33824C15.4189 7.86811 15.0946 8.34953 14.6859 8.75502C14.6858 8.75506 14.6859 8.75498 14.6859 8.75502L8.74683 14.6484C8.47135 14.9217 8.0247 14.9217 7.74921 14.6484L1.81019 8.75502C0.984773 7.93595 0.521057 6.82505 0.521057 5.66671C0.521057 4.50837 0.984773 3.39747 1.81019 2.5784C2.63561 1.75933 3.75512 1.29918 4.92244 1.29918C6.08976 1.29918 7.20927 1.75933 8.03469 2.5784L8.24802 2.7901L8.46124 2.57852C8.4612 2.57856 8.46128 2.57848 8.46124 2.57852C8.86987 2.17288 9.35514 1.85097 9.88912 1.63142ZM13.6881 3.56824C13.4105 3.29261 13.0808 3.07396 12.718 2.92479C12.3552 2.77561 11.9663 2.69883 11.5736 2.69883C11.1809 2.69883 10.792 2.77561 10.4292 2.92479C10.0664 3.07396 9.73673 3.29261 9.4591 3.56824L8.74683 4.27502C8.47135 4.54839 8.0247 4.54839 7.74921 4.27502L7.03707 3.56835C6.47623 3.01183 5.71558 2.69918 4.92244 2.69918C4.1293 2.69918 3.36865 3.01183 2.80782 3.56835C2.24698 4.12487 1.93191 4.87967 1.93191 5.66671C1.93191 6.45375 2.24698 7.20855 2.80782 7.76507L8.24802 13.1634L13.6882 7.76507C13.966 7.48957 14.1865 7.16235 14.3368 6.80233C14.4871 6.4423 14.5645 6.05642 14.5645 5.66671C14.5645 5.27701 14.4871 4.89112 14.3368 4.5311C14.1865 4.17107 13.9659 3.84374 13.6881 3.56824Z" fill="#FAFBFC"/>
</svg>
